<?xml version="1.0"?>
<svg xmlns="http://www.w3.org/2000/svg" height="512px" viewBox="0 0 192 192" width="512px"><g><path d="m48 32h96v16h-96z" data-original="#000000" class="active-path" data-old_color="#000000" fill="#FFFFFF"/><path d="m48 144h96v16h-96z" data-original="#000000" class="active-path" data-old_color="#000000" fill="#FFFFFF"/><path d="m59.35 168a39.984 39.984 0 0 0 73.3 0z" data-original="#000000" class="active-path" data-old_color="#000000" fill="#FFFFFF"/><path d="m96 0a40.051 40.051 0 0 0 -36.65 24h73.3a40.051 40.051 0 0 0 -36.65-24z" data-original="#000000" class="active-path" data-old_color="#000000" fill="#FFFFFF"/><path d="m136 40a8 8 0 0 0 -5.959-7.727l-74.041 74.041v22.372l80-80z" data-original="#000000" class="active-path" data-old_color="#000000" fill="#FFFFFF"/><path d="m136 71.314-80 80v.686a8 8 0 0 0 8 8h5.686l66.314-66.314z" data-original="#000000" class="active-path" data-old_color="#000000" fill="#FFFFFF"/><path d="m64 32a8 8 0 0 0 -8 8v43.686l51.686-51.686z" data-original="#000000" class="active-path" data-old_color="#000000" fill="#FFFFFF"/><path d="m92.314 160h35.686a8 8 0 0 0 8-8v-35.686z" data-original="#000000" class="active-path" data-old_color="#000000" fill="#FFFFFF"/></g> </svg>
